# xmcd
#
# Track frame offsets:
# 150
# 18355
# 41535
# 64339
# 90367
# 113632
# 131350
# 152677
# 181172
# 207942
# 222127
# 249180
# 275990
# 302202
# 317912
#
# Disc length: 4591 seconds
#
#
# Revision: 6
# Processed by: cddbd v1.5.2PL0 Copyright (c) Steve Scherf et al.
# Submitted via: FreeRIP 2.944 
#
DISCID=cb11ed0f
DTITLE=Marcelo Aguiar - Coração de Adorador
DYEAR=2004
DGENRE=Cristian Country
TTITLE0=01 - Evangelizar
TTITLE1=02 - Eu Vou Declarar
TTITLE2=03 - Vento Impetuoso
TTITLE3=04 - Vem Me Tocar
TTITLE4=05 - Esse é O meu DEUS
TTITLE5=06 - Hoje Eu Tenho Vida
TTITLE6=07 - Asas
TTITLE7=08 - Ele Venceu
TTITLE8=09 - Pescador
TTITLE9=10 - Palavra Ap. Estevam
TTITLE10=11 - Quebranta-me
TTITLE11=12 - Coração de Adorador
TTITLE12=13 - Me dá Poder de Fiho
TTITLE13=14 - Alfa e Ômega
TTITLE14=15 - Face a Face
EXTD=Recorded in Renascer em Cristo sede, 2004 YEAR: 2004
EXTT0=
EXTT1=
EXTT2=
EXTT3=
EXTT4=
EXTT5=
EXTT6=
EXTT7=
EXTT8=
EXTT9=
EXTT10=
EXTT11=
EXTT12=
EXTT13=
EXTT14=
PLAYORDER=
